<svg width="48" height="48" viewBox="0 0 48 48" fill="none" xmlns="http://www.w3.org/2000/svg">
<path d="M43.6774 10.3188C44.3586 11.0211 44.8425 11.8908 45.08 12.84C45.7145 16.3574 46.0225 19.9259 46 23.5C46.0127 27.0207 45.7048 30.5352 45.08 34C44.8425 34.9492 44.3586 35.8189 43.6774 36.5212C42.9961 37.2235 42.1416 37.7336 41.2 38C37.76 38.92 24 38.92 24 38.92C24 38.92 10.24 38.92 6.80005 38C5.87769 37.7476 5.03601 37.2616 4.35633 36.589C3.67666 35.9163 3.18196 35.0797 2.92004 34.16C2.28558 30.6426 1.9776 27.0741 2.00004 23.5C1.98252 19.9526 2.29047 16.4111 2.92004 12.92C3.15762 11.9708 3.64148 11.1011 4.32274 10.3988C5.004 9.69648 5.85854 9.18637 6.80005 8.92C10.24 8 24 8 24 8C24 8 37.76 8 41.2 8.84C42.1416 9.10637 42.9961 9.61648 43.6774 10.3188Z" stroke="#ED2E2E" stroke-width="2" stroke-linecap="round" stroke-linejoin="round"/>
<path d="M31 23.5L19.5 30.04V16.96L31 23.5Z" stroke="#ED2E2E" stroke-width="2" stroke-linecap="round" stroke-linejoin="round"/>
</svg>
